<?xml version="1.0" standalone="no"?>
<!DOCTYPE svg PUBLIC "-//W3C//DTD SVG 20010904//EN"
 "http://www.w3.org/TR/2001/REC-SVG-20010904/DTD/svg10.dtd">
<svg version="1.0" xmlns="http://www.w3.org/2000/svg"
 width="300.000000pt" height="300.000000pt" viewBox="0 0 300.000000 300.000000"
 preserveAspectRatio="xMidYMid meet">
<metadata>
Created by potrace 1.11, written by Peter Selinger 2001-2013
</metadata>
<g transform="translate(0.000000,300.000000) scale(0.100000,-0.100000)"
fill="#000000" stroke="none">
<path d="M1335 2982 c-46 -5 -256 -48 -262 -52 -2 -2 -6 -3 -10 -4 -85 -22
-275 -105 -333 -146 -14 -10 -28 -18 -33 -19 -9 -1 -39 -22 -130 -92 -92 -71
-202 -180 -258 -255 -24 -32 -46 -61 -49 -64 -13 -12 -60 -90 -60 -99 0 -5 -3
-11 -8 -13 -22 -10 -111 -213 -144 -333 -21 -76 -23 -82 -38 -168 -16 -83 -11
-442 6 -514 8 -32 16 -67 19 -78 19 -83 27 -110 36 -127 6 -11 12 -27 14 -37
4 -19 83 -186 112 -236 37 -62 155 -214 210 -272 119 -122 256 -223 408 -300
77 -39 178 -81 206 -87 8 -2 21 -5 29 -9 31 -11 137 -36 180 -43 25 -3 70 -10
100 -14 86 -12 298 -9 380 5 116 21 126 23 198 39 81 19 362 141 362 158 0 4
4 8 10 8 11 0 104 59 137 86 12 11 37 30 55 44 50 39 198 191 236 245 4 6 19
27 35 47 15 20 27 40 27 44 0 4 6 15 14 23 28 31 112 208 144 301 61 180 71
252 71 487 0 116 -4 227 -9 245 -5 18 -16 65 -25 103 -22 95 -70 224 -119 315
-21 41 -45 87 -53 101 -7 15 -20 32 -28 39 -8 7 -15 17 -15 22 0 6 -10 22 -22
37 -13 16 -36 45 -53 66 -45 58 -174 184 -236 231 -113 87 -271 178 -369 213
-19 7 -44 17 -55 21 -50 21 -175 55 -245 66 -130 21 -331 29 -435 16z"/>
</g>
</svg>
